<svg xmlns="http://www.w3.org/2000/svg"  viewBox="0 0 44 44" width="44px" height="44px"><path d="M 13 8 C 12.4 8 12 8.4 12 9 C 12 9.6 12.4 10 13 10 C 13.6 10 14 10.4 14 11 C 14 11.6 13.6 12 13 12 L 9 12 C 8.4 12 8 12.4 8 13 C 8 13.6 8.4 14 9 14 L 13 14 C 14.7 14 16 12.7 16 11 C 16 9.3 14.7 8 13 8 z M 23 8 C 20.2 8 18 10.2 18 13 C 18 13.6 18.4 14 19 14 C 19.6 14 20 13.6 20 13 C 20 11.3 21.3 10 23 10 C 24.7 10 26 11.3 26 13 C 26 14.7 24.7 16 23 16 L 6 16 C 5.4 16 5 16.4 5 17 C 5 17.6 5.4 18 6 18 L 23 18 C 25.8 18 28 15.8 28 13 C 28 10.2 25.8 8 23 8 z M 37 8 C 33.1 8 30 11.1 30 15 C 30 15.6 30.4 16 31 16 C 31.6 16 32 15.6 32 15 C 32 12.2 34.2 10 37 10 C 39.8 10 42 12.2 42 15 C 42 17.8 39.8 20 37 20 L 1 20 C 0.4 20 0 20.4 0 21 C 0 21.6 0.4 22 1 22 L 37 22 C 40.9 22 44 18.9 44 15 C 44 11.1 40.9 8 37 8 z M 1 24 C 0.4 24 0 24.4 0 25 C 0 25.6 0.4 26 1 26 L 31 26 C 33.2 26 35 27.8 35 30 C 35 32.2 33.2 34 31 34 C 28.8 34 27 32.2 27 30 C 27 29.4 26.6 29 26 29 C 25.4 29 25 29.4 25 30 C 25 33.3 27.7 36 31 36 C 34.3 36 37 33.3 37 30 C 37 26.7 34.3 24 31 24 L 1 24 z M 4 28 C 3.4 28 3 28.4 3 29 C 3 29.6 3.4 30 4 30 L 19 30 C 20.1 30 21 30.9 21 32 C 21 33.1 20.1 34 19 34 C 18.4 34 18 34.4 18 35 C 18 35.6 18.4 36 19 36 C 21.2 36 23 34.2 23 32 C 23 29.8 21.2 28 19 28 L 4 28 z M 9 32 C 8.4 32 8 32.4 8 33 C 8 33.6 8.4 34 9 34 L 13 34 C 13.6 34 14 34.4 14 35 C 14 35.6 14.4 36 15 36 C 15.6 36 16 35.6 16 35 C 16 33.3 14.7 32 13 32 L 9 32 z"/></svg>