<svg xmlns="http://www.w3.org/2000/svg"  viewBox="0 0 64 64" width="48px" height="48px"><path d="M 23 10 C 22.336 10 21.71575 10.329859 21.34375 10.880859 C 20.00975 12.855859 8.3125 30.434828 8.3125 39.298828 C 8.3125 47.405828 14.9 54 23 54 C 31.1 54 37.6875 47.405828 37.6875 39.298828 C 37.6875 30.434828 25.99025 12.855859 24.65625 10.880859 C 24.28425 10.329859 23.664 10 23 10 z M 45 11 C 43.785 11 42.823344 12.082937 43.027344 13.335938 C 43.187344 14.318937 44.111422 15 45.107422 15 L 50.5 15 C 50.776 15 51 15.224 51 15.5 L 51 18 L 47.5 18 C 46.672 18 46 18.671 46 19.5 C 46 20.329 46.672 21 47.5 21 L 51 21 L 51 24 L 47.5 24 C 46.672 24 46 24.671 46 25.5 C 46 26.329 46.672 27 47.5 27 L 51 27 L 51 30 L 45 30 C 43.896 30 43 30.896 43 32 C 43 33.104 43.896 34 45 34 L 51 34 L 51 37 L 47.5 37 C 46.672 37 46 37.671 46 38.5 C 46 39.329 46.672 40 47.5 40 L 51 40 L 51 43 L 47.5 43 C 46.672 43 46 43.671 46 44.5 C 46 45.329 46.672 46 47.5 46 L 51 46 L 51 48.5 C 51 48.776 50.776 49 50.5 49 L 45 49 C 43.785 49 42.823344 50.082937 43.027344 51.335938 C 43.187344 52.318938 44.111422 53 45.107422 53 L 51 53 C 53.209 53 55 51.209 55 49 L 55 15 C 55 12.791 53.209 11 51 11 L 45 11 z M 23 15.660156 C 25.355529 19.377595 28.589844 24.915346 30.888672 30 L 15.111328 30 C 17.410156 24.915346 20.644471 19.377595 23 15.660156 z"/></svg>