<svg xmlns="http://www.w3.org/2000/svg"  viewBox="0 0 100 100" width="100px" height="100px" baseProfile="basic"><path fill="#316db0" d="M83.618,74.19c-1.877-2.118-5.433-1.256-7.934-1.222c-3.92,0.052-7.816-0.072-11.735,0.156	c-3.186,0.185-6.369,0.461-9.558,0.605c-0.02-0.165-0.048-0.33-0.047-0.415c0.002-0.537,0.04-1.073,0.075-1.609	c0.064-0.967,0.046-1.92,0.034-2.887c-0.025-2.039,0.047-4.538-1.176-6.284c-0.383-0.548-0.952-0.994-1.592-1.17	c-0.339-0.241-0.728-0.409-1.127-0.462c-0.259-0.035-0.538-0.018-0.815,0.037c-1.053-0.743-2.745-0.584-3.479,0.512	c-0.161-0.057-0.325-0.103-0.49-0.125c-0.144-0.019-0.285-0.023-0.425-0.018c-0.441-0.385-0.999-0.628-1.598-0.602	c-1.364,0.061-2.488,1.098-2.5,2.5c-0.018,2.074,0.353,4.104,0.212,6.184c-0.091,1.343-0.236,2.797-0.03,4.165	c-0.321-0.01-0.642-0.024-0.964-0.031c-3.854-0.087-7.596,0.319-11.403,0.652c-2.367-0.428-4.791-0.308-7.178-0.035	c-0.029,0.003-0.058,0.008-0.088,0.011c-2.188-0.172-4.371-0.31-6.542,0.033c-0.561-0.056-1.123-0.097-1.693-0.077	c-1.456,0.053-2.357,1.11-2.5,2.5c-0.171,1.656-0.239,3.577-0.04,5.237c0.223,1.859,1.771,2.76,3.489,3.008	c1.821,0.263,3.584-0.037,5.398-0.208c1.636-0.154,3.275-0.297,4.913-0.44c1.835,0.187,3.749,0.085,5.491,0.088	c4.044,0.008,8.087-0.124,12.13-0.102c3.918,0.021,7.827,0.248,11.747,0.205c1.48-0.016,2.959-0.061,4.437-0.12	c2.645,0.237,5.297,0.36,7.96,0.393c1.759,0.022,3.519,0.032,5.278,0.014c1.862-0.019,3.77-0.236,5.628-0.121	c2.48,0.153,5.951,0.846,6.664-2.464c0.238-1.108,0.141-2.245,0.191-3.366C84.421,77.184,84.829,75.557,83.618,74.19z"/><path fill="#3158a7" d="M58.57,80.349c-0.002-0.022-0.003-0.032-0.006-0.061c-0.013-0.126-0.029-0.251-0.041-0.377	c-0.026-0.274-0.043-0.549-0.039-0.825c0.009-0.599,0.103-1.195,0.163-1.79c0.159-1.586,0.059-3.346-1.082-4.579	c-1.217-1.315-3.1-1.565-4.807-1.56c-1.515,0.004-3.018,0.248-4.533,0.232c-1.91-0.019-3.813-0.253-5.724-0.248	c-1.187,0.003-2.389,0.278-3.2,1.034c-0.374,0.168-0.73,0.419-1.056,0.774c-0.942,1.026-1.116,2.48-1.063,3.817	c0.036,0.908,0.143,1.795,0.115,2.706c-0.041,1.337-0.044,2.685,0.484,3.938c1.616,3.828,6.49,2.623,9.768,2.791	c1.922,0.098,3.809,0.092,5.733,0.047c1.846-0.043,3.789-0.141,4.883-1.879C58.953,83.119,58.746,81.722,58.57,80.349z M38.492,75.876c0.001,0.004,0.001,0.009,0.002,0.013c0.008,0.079,0.017,0.159,0.025,0.238	C38.524,76.184,38.519,76.15,38.492,75.876z"/><path fill="#19805c" d="M75.465,28.929C72.687,14.239,56.607,5.779,42.538,8.641c-0.098,0.02-0.176,0.057-0.268,0.083	c-0.099,0.022-0.193,0.027-0.295,0.058c-7.736,2.328-13.684,5.719-18.023,12.746c-3.945,6.39-5.099,13.786-3.604,21.11	c3.268,16.01,19.343,24.407,34.785,20.895C71.1,59.9,78.359,44.231,75.465,28.929z M53.273,56.782	c-11.538,2.541-23.306-3.396-26.001-15.255c-1.259-5.537-0.472-10.991,2.394-15.9c3.326-5.697,8.015-8.243,14.171-10.095	c0.098-0.029,0.176-0.075,0.267-0.11c0.099-0.013,0.193-0.01,0.295-0.03C54.822,13.27,66.885,20,68.715,30.79	C70.693,42.458,65.503,54.088,53.273,56.782z"/><path fill="#c4dceb" d="M47.406,40.844c5.791,0,5.801-9,0-9C41.615,31.844,41.606,40.844,47.406,40.844L47.406,40.844z"/><path fill="#c4dceb" d="M68.203,27.687c-2.43-7.571-8.2-11.032-14.84-11.941c-1.298-0.36-2.64-0.6-4.019-0.67	c-17.55-0.882-29.771,20.057-18.682,34.421c6.388,8.275,18.735,10.997,27.783,5.87C68.468,49.687,71.61,38.299,68.203,27.687z"/><path fill="#de333b" d="M65.132,22.124c-0.642-0.776-2.191-0.782-2.828,0c-0.928,1.138-2.066,2.307-2.15,3.858	c-0.077,1.424,0.831,2.557,1.607,3.655c0.71,1.004,1.275,2.147,1.703,3.349c0.587,4.461-0.061,9.079-3.496,12.228	c-0.701,0.642-0.722,1.713-0.264,2.48c0.039,0.2,0.099,0.394,0.204,0.568c0.787,1.309,1.91,2.547,3.566,2.491	c1.425-0.048,2.451-1.069,3.219-2.166c1.692-2.415,2.871-5.607,3.303-8.51C70.94,33.735,69.229,27.079,65.132,22.124z"/><path fill="#3158a7" d="M47.547,36.938c2.574,0,2.578-4,0-4C44.973,32.938,44.969,36.938,47.547,36.938L47.547,36.938z"/><path fill="#3158a7" d="M55.592,25.22c0.614-1.329,1.22-2.662,1.853-3.983c0.4-0.833-0.374-1.583-1.057-1.5	c-0.337-0.16-0.753-0.159-1.11,0.149c-0.17,0.146-0.314,0.313-0.476,0.465c-0.145,0.043-0.285,0.111-0.404,0.238	c-0.29,0.308-0.549,0.641-0.795,0.982c-1.679,1.908-2.968,4.121-4.186,6.38c-0.785,1.06-1.547,2.143-2.177,3.295	c-0.565,0.034-1.124,0.175-1.637,0.43c-0.95,0.473-1.558,1.407-1.897,2.379c-0.318,0.913-0.281,1.899-0.121,2.836	c0.16,0.937,0.626,1.79,1.236,2.507c0.735,0.865,1.818,1.292,2.923,1.387c0.525,0.045,1.081-0.04,1.584-0.184	c0.546-0.156,1.113-0.385,1.579-0.717c0.525-0.374,0.998-0.796,1.312-1.372c0.304-0.557,0.451-1.125,0.478-1.758	c0.029-0.708-0.179-1.465-0.52-2.112c0.446-0.981,0.742-2.026,0.997-3.081C54.055,29.468,55.045,27.394,55.592,25.22z"/><path fill="#99c0d3" d="M37.683,23.391c0.055-0.243,0.059-0.563-0.101-0.771c-0.416-0.542-0.838-1.033-1.388-1.445 c-0.263-0.197-0.556-0.343-0.868-0.448c-0.401-0.135-0.792-0.121-1.203-0.066c-0.296,0.04-0.54,0.324-0.648,0.579 c-0.122,0.289-0.114,0.615,0.05,0.89c0.006,0.01,0.015,0.016,0.021,0.025c0.003,0.021,0.005,0.042,0.009,0.063 c-0.094,0.076-0.18,0.163-0.232,0.261c-0.123,0.232-0.184,0.513-0.101,0.771c0.084,0.261,0.237,0.438,0.46,0.598 c0.859,0.616,1.698,1.352,2.748,1.618c0.393,0.1,0.804-0.038,1.051-0.358c0.249-0.322,0.274-0.753,0.078-1.111 c-0.037-0.068-0.091-0.124-0.133-0.189C37.545,23.69,37.645,23.556,37.683,23.391z"/><path fill="#99c0d3" d="M31.122,34.855c-0.128-0.243-0.357-0.361-0.598-0.46c-0.365-0.151-0.787-0.179-1.178-0.189 c-0.355-0.009-0.71,0.012-1.065,0.012c-0.516,0-1.007,0.449-0.996,0.98c-0.013,0.006-0.027,0.008-0.04,0.015 c-0.257,0.125-0.416,0.402-0.47,0.681C26.714,35.95,26.649,36,26.59,36.059c-0.388,0.384-0.376,1.028,0,1.414 c0.023,0.024,0.054,0.04,0.078,0.063c0.004,0.157,0.044,0.312,0.137,0.434c0.171,0.222,0.267,0.343,0.506,0.499 c0.141,0.092,0.305,0.156,0.465,0.21c0.286,0.097,0.605,0.122,0.905,0.13c0.47,0.013,0.935-0.054,1.402-0.087 c0.5-0.036,0.913-0.353,0.982-0.867c0.029-0.213,0.001-0.451-0.119-0.638c0,0,0,0-0.001-0.001c0.123-0.241,0.131-0.527,0.047-0.785 c0.161-0.181,0.269-0.408,0.258-0.651c-0.002-0.053-0.024-0.097-0.033-0.148c0.026-0.087,0.046-0.177,0.042-0.274 C31.25,35.182,31.205,35.012,31.122,34.855z"/><path fill="#99c0d3" d="M36.637,48.027c-0.088-0.025-0.178-0.043-0.267-0.053c-0.025-0.032-0.039-0.076-0.068-0.103 c-0.191-0.175-0.441-0.305-0.707-0.293c-0.245,0.011-0.549,0.089-0.707,0.293c-0.296,0.383-0.648,0.714-0.997,1.048 c-0.329,0.315-0.63,0.648-0.909,1.005c-0.013,0.014-0.027,0.027-0.04,0.041c0.001,0.001,0.003,0.002,0.004,0.003 c-0.052,0.068-0.11,0.129-0.16,0.199c-0.137,0.192-0.172,0.551-0.101,0.771c0.068,0.211,0.182,0.383,0.358,0.519 c0.023,0.018,0.052,0.024,0.077,0.039c-0.001,0.004-0.003,0.007-0.004,0.012c-0.029,0.213-0.001,0.451,0.119,0.638 c0.093,0.145,0.214,0.266,0.359,0.359c0.233,0.15,0.511,0.145,0.771,0.101c0.08-0.014,0.155-0.039,0.232-0.06 c0.002,0.001,0.003,0.003,0.004,0.004c0.367,0.284,0.988,0.302,1.313-0.078c0.495-0.579,0.998-1.173,1.331-1.863 c0.167-0.346,0.167-0.727-0.024-1.031c0.038-0.107,0.081-0.212,0.116-0.321C37.502,48.738,37.139,48.173,36.637,48.027z"/><path fill="#99c0d3" d="M50.094,17.956c-0.001-0.667-0.02-1.331-0.177-1.988c-0.121-0.509-0.729-0.861-1.23-0.698 c-0.123,0.04-0.231,0.102-0.327,0.175c-0.081-0.007-0.162-0.015-0.244-0.004c-0.006,0.001-0.01,0.004-0.016,0.005 c-0.182-0.183-0.428-0.301-0.694-0.289c-0.542,0.024-1,0.439-1,1c0,0.12,0,0.239,0,0.359c-0.037,0.426-0.029,0.861,0,1.295 c0,0.169,0,0.337,0,0.506c-0.01,0.307-0.011,0.613,0,0.915c0.011,0.306,0.173,0.591,0.408,0.782 c0.187,0.374,0.597,0.601,1.014,0.545c0.138-0.018,0.27-0.078,0.394-0.156c0.145,0.076,0.301,0.131,0.452,0.124 c0.553-0.025,0.986-0.439,1-1c0-0.016,0-0.032,0-0.048c0.041-0.03,0.091-0.046,0.126-0.084c0.188-0.205,0.27-0.43,0.293-0.707 C50.114,18.443,50.108,18.199,50.094,17.956z"/><g><path fill="none" d="M25.078,23.496c-3.945,6.39-5.099,13.786-3.604,21.11C23.749,55.751,32.232,63.2,42.385,65.517 c0.021,1.954,0.335,3.874,0.202,5.839c-0.041,0.601-0.09,1.226-0.117,1.854c-0.779,0.133-1.499,0.425-2.045,0.934 c-0.374,0.168-0.73,0.419-1.056,0.774c-0.167,0.182-0.303,0.382-0.425,0.589c-0.205,0.348-4.147,0.234-4.715,0.28 c-1.602,0.13-3.184,0.201-4.793,0.2c-4.256-0.003-8.844-0.503-13.054,0.164c-0.561-0.056-1.123-0.097-1.693-0.077 c-1.456,0.053-2.357,1.11-2.5,2.5c-0.171,1.656-0.239,3.577-0.04,5.237c0.636,5.298,9.209,2.694,12.437,2.532 c4.917-0.246,9.844-0.102,14.764-0.162c1.933,2.836,6.303,1.835,9.324,1.99c1.922,0.098,3.809,0.092,5.733,0.047 c1.846-0.043,3.789-0.141,4.883-1.879c0.016-0.026,0.026-0.052,0.041-0.078c0.141-0.005,0.283-0.011,0.424-0.017 c5.441-0.216,10.872,0.349,16.312,0.334c2.797-0.007,8.393,1.319,9.217-2.512c0.238-1.108,0.141-2.245,0.191-3.366 c0.069-1.547,0.478-3.174-0.734-4.542c-1.877-2.118-5.433-1.256-7.934-1.222c-5.765,0.077-11.722,0.153-17.563,0.551 c-0.151-0.283-0.328-0.555-0.555-0.801c-0.825-0.892-1.957-1.288-3.133-1.453c0.035-0.817,0.03-1.627,0.02-2.447 c-0.021-1.7-0.055-3.363-0.514-5.016c7.6-1.878,13.991-5.599,18.046-12.511c3.919-6.681,4.908-14.811,3.48-22.36 C73.812,16.208,57.732,7.747,43.663,10.609c-0.098,0.02-0.176,0.057-0.268,0.083c-0.099,0.022-0.193,0.027-0.295,0.058"/><path d="M25.078,23.496c0,0-0.156,0.279-0.46,0.823c-0.302,0.543-0.735,1.364-1.209,2.479c-0.949,2.211-2.13,5.662-2.271,10.242 c-0.129,4.516,0.658,10.314,4.07,15.783c1.669,2.733,4.032,5.283,6.966,7.392c1.487,1.024,3.091,1.969,4.835,2.736 c0.882,0.356,1.766,0.746,2.704,1.019c0.975,0.339,1.644,0.472,3.445,0.943c0.014,0.469,0.024,1.002,0.05,1.434l0.069,0.996 c0.048,0.635,0.096,1.276,0.144,1.924c0.038,0.66,0.055,1.341,0.02,2.041c-0.017,0.336-0.035,0.674-0.052,1.014 c-0.038,0.538-0.046,1.105-0.108,1.625l-0.895,0.181c-0.149,0.033-0.294,0.073-0.435,0.122c-0.092,0.033-0.148,0.057-0.216,0.088 c-0.131,0.059-0.256,0.127-0.373,0.204c-0.058,0.039-0.115,0.079-0.17,0.122l-0.271,0.238c-0.259,0.121-0.302,0.148-0.389,0.204 c-0.084,0.054-0.165,0.115-0.244,0.183c-0.079,0.068-0.156,0.144-0.232,0.226c-0.086,0.121-0.173,0.244-0.263,0.37 c-0.3,0.544-0.987,0.685-1.524,0.728c-0.405,0.041-0.786,0.058-1.17,0.074c-0.751,0.015-1.507,0.03-2.269,0.046 c-1.506,0.074-3.032,0.148-4.578,0.224c-3.161,0.131-6.344-0.148-9.522-0.056c-0.794,0.021-1.588,0.057-2.376,0.133 c-0.395,0.032-0.786,0.083-1.178,0.134l-0.669,0.099c-0.492,0.004-0.554-0.014-0.771-0.017c-0.359-0.007-0.799-0.044-1.094-0.031 c-0.259,0.022-0.473,0.098-0.649,0.219c-0.354,0.234-0.598,0.685-0.649,1.299c-0.149,1.625-0.196,3.294-0.008,4.876 c0.126,0.648,0.32,1.143,0.723,1.494c0.425,0.341,1.083,0.558,1.813,0.677c1.502,0.206,3.217,0.029,4.946-0.224 c0.894-0.132,1.792-0.265,2.693-0.398c1.006-0.128,1.906-0.142,2.826-0.185c3.682-0.138,7.395-0.096,11.126-0.122l1.594-0.016 c0.439,0.037,1.009-0.171,1.204,0.332l0.417,0.52c0.112,0.13,0.133,0.123,0.202,0.193c0.452,0.418,1.094,0.691,1.883,0.823 c1.591,0.285,3.44,0.061,5.501,0.078c1.904,0.015,3.819,0.03,5.744,0.045c0.967,0.001,1.876-0.035,2.591-0.215 c0.358-0.091,0.658-0.217,0.902-0.381c0.122-0.082,0.229-0.178,0.333-0.28c0.042-0.071,0.075-0.052,0.249-0.328l0.354-0.723 c0.818-0.029,1.641-0.058,2.467-0.087c0.575-0.005,1.153-0.01,1.733-0.015c1.157,0.004,2.315,0.031,3.471,0.069 c2.403,0.093,4.792,0.186,7.168,0.277l1.759,0.036l0.874,0.005c0.285,0.003,0.659,0.008,0.958,0.026 c1.246,0.071,2.38,0.194,3.464,0.193c1.073,0.014,2.112-0.115,2.751-0.469c0.303-0.188,0.541-0.358,0.665-0.654 c0.103-0.111,0.109-0.323,0.184-0.477c0.054-0.197,0.085-0.438,0.11-0.677c0.048-0.485,0.048-1.025,0.052-1.614 c-0.002-0.578,0.037-1.269,0.09-1.826c0.112-1.151,0.082-1.926-0.299-2.441c-0.4-0.579-1.068-0.941-1.976-1.091 c-0.909-0.147-1.96-0.1-3.059-0.022c-0.551,0.038-1.123,0.084-1.728,0.102l-1.693,0.02c-1.108,0.011-2.211,0.023-3.308,0.034 c-2.193,0.027-4.36,0.064-6.5,0.128c-1.069,0.039-2.132,0.078-3.189,0.116c-1.304,0.07-2.601,0.139-3.891,0.208 c-0.178-0.322-0.349-0.667-0.539-0.973c-0.133-0.193-0.122-0.166-0.172-0.23l-0.131-0.139c-0.188-0.185-0.402-0.342-0.64-0.476 c-0.24-0.131-0.502-0.24-0.779-0.324c-0.539-0.158-1.303-0.249-1.914-0.353c0.011-0.981,0.021-1.958,0.032-2.927 c0.016-0.621,0.004-1.269-0.009-1.872c-0.016-0.608-0.05-1.194-0.115-1.755l-0.055-0.415l-0.056-0.319 c-0.027-0.133-0.045-0.263-0.079-0.398c-0.135-0.537-0.269-1.068-0.401-1.593l2.063-0.543l0.472-0.125l0.287-0.085l0.573-0.169 c0.761-0.23,1.513-0.476,2.243-0.76c1.466-0.554,2.882-1.192,4.203-1.956c2.644-1.518,4.971-3.442,6.787-5.717 c3.672-4.545,5.495-10.1,5.99-15.343c0.475-5.265-0.164-10.376-2.007-14.56c-1.918-4.178-4.847-7.431-7.929-9.74 c-3.114-2.288-6.332-3.731-9.235-4.572c-2.916-0.819-5.499-1.149-7.6-1.204c-1.05-0.06-1.979,0.046-2.784,0.053 c-0.805,0.026-1.47,0.174-2.014,0.228c-0.539,0.083-0.959,0.104-1.224,0.187c-0.268,0.073-0.411,0.085-0.411,0.085 s0.141-0.018,0.407-0.101c0.264-0.094,0.68-0.131,1.217-0.234c0.541-0.075,1.206-0.248,2.012-0.303 c0.806-0.037,1.739-0.177,2.798-0.154c2.12-0.019,4.741,0.223,7.732,0.96c2.979,0.76,6.308,2.124,9.585,4.385 c3.241,2.282,6.39,5.566,8.525,9.911c2.068,4.392,2.855,9.675,2.488,15.19c-0.396,5.504-2.166,11.419-6.04,16.415 c-1.917,2.498-4.415,4.645-7.241,6.33c-1.412,0.849-2.919,1.559-4.472,2.176c-0.775,0.315-1.569,0.589-2.37,0.846 c-0.445,0.139-0.893,0.278-1.343,0.419l0.046,0.164l0.01,0.045l0.022,0.127l0.072,0.486c0.086,0.65,0.132,1.306,0.159,1.957 c0.024,0.656,0.045,1.286,0.039,1.953l0,0.818c0.004,0.039-0.002,0.096,0.011,0.134c0.075,0.011,0.058,0,0.204,0.039 c0.412,0.119,0.835,0.283,1.25,0.503c0.414,0.224,0.818,0.509,1.177,0.853c0.088,0.09,0.174,0.171,0.264,0.273l0.183,0.22 l0.042,0.06c0.807-0.051,1.62-0.102,2.436-0.154c1.069-0.052,2.143-0.103,3.224-0.155c2.16-0.089,4.343-0.15,6.545-0.199 c1.1-0.022,2.206-0.044,3.317-0.066l1.644-0.034c0.51-0.019,1.052-0.066,1.618-0.11c1.132-0.084,2.346-0.177,3.678,0.022 c1.31,0.182,2.864,0.866,3.769,2.198c0.47,0.662,0.729,1.481,0.806,2.214c0.077,0.736,0.026,1.392-0.019,1.973 c-0.05,0.587-0.074,1.048-0.071,1.624c-0.003,0.565,0.006,1.183-0.055,1.852c-0.033,0.337-0.074,0.674-0.164,1.039 c-0.131,0.386-0.194,0.775-0.43,1.146c-0.363,0.774-1.07,1.388-1.762,1.777c-1.44,0.755-2.821,0.81-4.08,0.823 c-1.269,0.003-2.484-0.128-3.599-0.186c-1.172-0.019-2.348-0.037-3.527-0.056c-2.382-0.09-4.779-0.181-7.188-0.272 c-1.137-0.038-2.267-0.065-3.386-0.069c-0.558,0.004-1.114,0.008-1.668,0.013l-0.898,0.024l-0.214,0.248 c-0.242,0.246-0.505,0.473-0.79,0.664c-0.57,0.383-1.192,0.623-1.78,0.77c-1.187,0.283-2.246,0.286-3.217,0.29 c-1.961-0.023-3.911-0.045-5.851-0.068c-1.773-0.043-3.77,0.228-5.939-0.152c-1.074-0.186-2.27-0.628-3.209-1.5l-0.311-0.293 l-0.024-0.032c-0.02-0.031-0.022-0.019-0.033-0.023l-1.222,0.003c-3.766-0.001-7.451-0.073-11.051,0.027 c-3.452-0.098-6.928,1.22-10.93,0.661c-0.995-0.179-2.068-0.482-3.011-1.26c-0.95-0.812-1.389-2.023-1.532-3.074 c-0.193-1.861-0.107-3.639,0.076-5.388c0.092-1.064,0.632-2.3,1.715-2.984c0.526-0.344,1.136-0.524,1.71-0.564 c0.538-0.021,0.932,0.031,1.403,0.046l0.473,0.027l0.561-0.074c0.429-0.049,0.857-0.097,1.281-0.125 c0.851-0.068,1.692-0.092,2.524-0.1c3.328-0.037,6.497,0.299,9.533,0.225c1.55-0.046,3.081-0.091,4.592-0.135 c0.747,0,1.49,0,2.227,0.001c0.359-0.008,0.72-0.018,1.051-0.044c0.187-0.015,0.295-0.011,0.363-0.143 c0.21-0.428,1.095-1.099,1.467-1.238l0.176-0.141c0.099-0.074,0.2-0.144,0.302-0.208c0.204-0.128,0.413-0.234,0.621-0.323 l0.298-0.116l0.098-0.029c0.066-0.017,0.133-0.031,0.202-0.041c0.042-0.098,0.031-0.242,0.049-0.357 c0.024-0.326,0.047-0.649,0.071-0.971c0.044-0.616,0.044-1.237,0.022-1.863c-0.033-0.636-0.066-1.266-0.099-1.889l-0.043-0.884 l-0.004-0.438c-0.168-0.065-1.482-0.391-2.388-0.741c-0.978-0.312-1.9-0.742-2.816-1.139c-1.813-0.85-3.473-1.884-5.002-2.997 c-3.019-2.288-5.413-5.021-7.07-7.91c-1.684-2.874-2.701-5.839-3.226-8.624c-0.517-2.786-0.646-5.387-0.484-7.704 c0.296-4.653,1.614-8.089,2.646-10.275c0.517-1.102,0.981-1.908,1.304-2.44C24.911,23.769,25.078,23.496,25.078,23.496z"/></g></svg>