<svg xmlns="http://www.w3.org/2000/svg"  viewBox="0 0 512 512" width="48px" height="48px"><path fill="#FEBF10" d="M94.5,343.4c-3.7-4.2-7.3-8.6-9.7-13.5c-0.1,0.1-0.2,0.2-0.3,0.3c-3.8,3.5-5.6,8.5-7.5,13.2c-1.9,4.7-3.9,9.3-6,13.9c-3.7,8-8.5,15.3-13,22.9c8.1-2,16-4.9,23.8-7.2c9.5-2.8,19-5.9,28-10.1C104.3,356.6,100,349.6,94.5,343.4z"/><path fill="#74CCCF" d="M261.3,235.5c-0.1-8.5-0.3-17-1.7-25.3c-1.2-7.3-2.6-15.9-7.2-21.9c-3.4-4.4-5.8-1.9-7,3.1c-3.4,15.1,1,30.4,1.7,45.6c0.8,17.4,1.1,41.4-13.1,54.1c-9.7,8.7-26.3,12.5-36.2,1.8c-9-9.8-11.5-24.1-12.6-37c-1.4-15.8-0.9-31.7,0-47.5c0.6-9.8,1.8-19.2,1.8-28.6c-5.6,0.1-11.2,1.1-16.8,1.3c-2.8,21.7-1.9,43.5-2.6,65.3c-0.6,17.9-2.6,41.4,9,56.5c10,13,30.4,21.1,46.4,15c16.3-6.2,26.6-20.8,32.3-36.9C260.3,266.7,261.5,250.6,261.3,235.5z"/><path fill="#FEBF10" d="M181.9 417.3c-9-3.5-16.1-11.6-24.9-15.2.5 2.4.7 4.9.8 6.9.5 8.1.3 16.2 0 24.3-.4 9.1-.9 18.2-1.4 27.3-.1 2.1-.3 4.2-.4 6.3 10.2-6.6 19.7-14.5 27.7-23.4 4.6-5.1 8.8-10.8 14.3-15 1.5-1.2 3.2-2.2 4.7-3.3C196 421.9 188.7 419.9 181.9 417.3zM330.4 108.8c-43.2-18.1-92.2-13.5-134.4 5.4-24.3 10.9-47.1 26.4-63.5 47.7-16.3 21.2-22.3 48.4-26.1 74.4.4.9.6 2 .4 3.3-4.9 27.6-1.2 54.6 13.8 78.6 12.9 20.7 31.3 37.8 51.9 50.7 23.2 14.4 48.4 24.7 75.7 27.7 52 5.7 105.7-15.1 137.7-57C442.3 265.9 418.6 145.7 330.4 108.8zM254 307.2c-6.9 9.3-16.2 17.1-27.3 21-11.2 3.9-24.6 2.7-35.5-1.5-11.1-4.3-21.3-12.2-26.7-22.9-6.1-11.9-7.9-25.5-8-38.7-.2-14 .6-28 .6-42 .1-16.3.6-32.5 3.1-48.6.6-3.8 4.1-4.9 6.9-4 .6-.2 1.3-.4 2.1-.4 8.2-.2 16.2-1.8 24.5-.9 2.3.3 4.3 2.7 4.4 5 .4 9.2-.8 18.7-1.4 27.9-.9 13.3-1.5 26.6-1.1 39.9.3 11.9.9 24.6 5.6 35.7 1.6 3.8 3.5 7 6.7 9.2 2.1 1.5 5.8 2 9.7 1.2 18.6-3.8 19.3-30.3 19-45.1-.4-15.8-4.1-31.3-2.7-47.1.6-6.9 2.4-15.4 8.9-19.2 6.9-4 14.7-.6 19 5.5 8.7 12.5 10 30 10.6 44.9C273.1 254.3 270.8 284.5 254 307.2zM363.3 255.1c-4 10.8-7.2 22.1-10.1 33.3-2.5 9.4-7 18.9-7.3 28.7-.1 2.5-1.2 4.7-3.7 5.6-7 2.5-13.9 1.9-21.2 1.1-4.2-.5-8.6-1.5-10.3-5.9-2.1-5.5-2.8-11.9-4.4-17.6-2.3-7.9-4.8-15.8-7.4-23.6-5.4-16.2-10.2-32.2-13.4-49-1.7-8.7-3.2-17.5-5.7-26-2.2-7.5-4.6-14.9-4.8-22.8-.1-2.8 1.6-4.6 3.7-5.4.4-.6 1-1.2 1.8-1.6 6.9-4.1 15.5-5.4 23.2-2.8 2.8 1 3.9 3.7 5 6.2 2.2 4.9 4.1 9.8 5.7 14.9 3.3 10.7 6.2 21.1 8.1 32.1.9 5.1 1.8 10.2 2.9 15.2 7.9-20.9 19-40.5 24.8-62.2.8-2.9 3.4-5 6.4-4.3 3.2.6 6.4 1.2 9.6 1.6 1.6.2 3.2.3 4.9.3-.2 0 4.1.7 2.5.4 2.4.4 4.9.5 7.3.6 5.2.2 7 5.3 4.8 8.5 2.2 1.1 3.7 3.4 3.2 6C383.9 211.8 371.5 232.9 363.3 255.1zM20.2 247.1c4.3 2.5 8.7 4.8 13.2 6.9 5.8 2.7 12.9 6.6 18.6 8.1 4.7 1.2 9.6 2 14.4 3.3.6.2 1.2.3 1.8.5.4-13.4 1.6-26.8 1.8-40.2C52.2 228.8 34.9 236.7 20.2 247.1zM48.4 127.5c3.6 4.6 8.1 8.7 12.1 12.6 4.7 4.6 8.6 8.7 12.8 12.5 4.8 4.4 9.7 8.5 14.4 12.9.8.7 1.5 1.4 2.3 2.1.3-.2.7-.3 1.1-.4.1-.1.2-.3.4-.5.9-1.5 1.7-3 2.5-4.5 1.7-3.5 3.1-7.1 4.6-10.8 1.5-3.9 2.9-8.3 4.9-12.4C85.1 134.9 67 129.2 48.4 127.5z"/><path fill="#74CCCF" d="M375.4,184.8c-1.4-0.1-2.7-0.3-4-0.6c-0.5-0.1-0.9-0.2-1.4-0.4c0.6,0.2,0.2,0.3-1.3,0.1c-1.6-0.1-3.2-0.2-4.7-0.4c-1.6-0.2-3.1-0.4-4.7-0.7c-7.7,24.9-21.7,47.5-28.5,72.8c-0.6,2.2-2.4,4.4-5,4.4h-1c-2.6,0-4.7-1.2-5.6-3.7c-6.4-16.6-7-34.7-12.2-51.6c-2.7-8.7-5.3-17.2-8.9-25.6c-0.9-0.2-1.9-0.4-2.8-0.4c-3.1,0.1-6.2,0.7-8.9,2.3c-0.1,0.1-0.2,0.1-0.4,0.2c0.7,6.3,2.8,12.2,4.5,18.4c1.9,7.1,3.3,14.4,4.8,21.6c2.9,15.2,6.7,29.8,11.5,44.5c4.7,14.2,9.8,28.4,13,43.1c0.3,1.2,0.4,2.5,0.7,3.7c0.5,0.1,0.9,0.2,1.4,0.2c4.6,0.6,8.9,1.2,13.3,0.4c1.1-8.7,4.4-16.9,6.7-25.5c3-11.4,6.3-22.9,10.2-34.1c4.1-11.7,9-23,14-34.3c4.2-9.4,8.2-18.8,10.8-28.7C375.3,189.2,374.9,186.9,375.4,184.8z"/><path fill="#FEBF10" d="M160.9 64c-8-5.9-16.2-13.5-25.8-16.9-.8 3-.1 6.8.3 9.5.9 5.3 2.3 10.4 4 15.5 3.1 9.5 8.9 18 10.2 27.8 9.1-7.8 20.6-14.2 31.9-18.4C176.4 74.2 167.7 69 160.9 64zM346.5 79.1c-.2.1-.3.3-.5.4 4.3 6.6 14.2 9.7 20.9 13.2 2.6 1.3 5.3 2.8 7.8 4.5 4.3-6.2 5.1-15.3 7.5-22 2.6-7.3 5.5-14.7 7.6-22.3C375.1 61.3 359.4 68 346.5 79.1zM473.4 264.9c-7.2-8.1-14.9-17.9-24.6-23.5-.3 15.6-2.4 30.8-7.9 45.3 17.5 3.5 35.9 1 53.3 5.2C489.5 281.6 480.9 273.3 473.4 264.9zM446 137.3c-9.8.4-19.5-.1-29.3-.2 5.7 5.7 10.1 13.3 13.8 19.8 3.1 5.5 7.8 13.2 8.8 20.5 2.5-2.6 4.7-6.2 6.1-8.2 2.8-4 5.5-8.1 8.5-12 3.8-4.8 8-9.2 11.7-14 2-2.6 4.6-5.8 6.1-9.2C463.1 134.3 454.6 136.9 446 137.3zM284.9 65.5c0-.1 0-.2 0-.3-.1-.8-.2-1.5-.5-2.3-.7-2.2-1.5-4.3-2.5-6.4-1.6-3.6-3.5-7.1-5.3-10.6-4.3-8.3-7.9-16.7-13.7-23.8-3.2 7.1-5.8 14.4-8.3 21.7-3.2 9-8.6 18.8-9.5 28.5 7.8 0 15.3-2.2 23.1-2.2 5 0 10.9.4 15.9-1.1C284 67.8 284.2 66.6 284.9 65.5zM415.8 355.8c-9 13.8-17.4 27.5-32.3 36.3 0 0 0 0-.1 0 5.7 9 16.6 14.2 26.2 17.7 8.4 3 17.1 5 25.9 6.3C429.3 395.9 422.7 375.8 415.8 355.8zM282.8 432.7c6.3 5.6 11.2 13.3 15.6 19.8 5.2 7.8 7.2 17.4 12.4 25.2 2.2 3.3 4.8 6.2 7.1 9.3 3.8-10.4 5.8-21.4 8.8-32.1 3.1-11 7.2-22.1 9.7-33.4C319.6 429.2 301.2 431.9 282.8 432.7z"/><path d="M415.6,182.7c-16.7-42.8-51.5-75.2-95.1-89.1c-45.2-14.4-94.9-6.3-136.8,14.3c-23.9,11.8-47.3,28.6-62.3,50.9c-16.1,23.7-22.4,51.8-26.3,79.7c-0.2,1.1,0,2.1,0.4,3c-3.6,24.2-1.3,47.9,9.3,70.3c10.4,21.9,27,40.3,46,55.1c42.2,32.9,96.9,49.2,149.8,37.9c48.9-10.4,90.8-42.9,112.1-88.2C432.2,274.7,432.3,225.5,415.6,182.7z M386,339.5c-32,41.9-85.7,62.7-137.7,57c-27.3-3-52.5-13.3-75.7-27.7c-20.7-12.8-39-30-51.9-50.7c-15-24-18.7-51-13.8-78.6c0.2-1.3,0-2.4-0.4-3.3c3.8-26,9.8-53.2,26.1-74.4c16.3-21.3,39.2-36.8,63.5-47.7c42.2-18.8,91.2-23.5,134.4-5.4C418.6,145.7,442.3,265.9,386,339.5z"/><path d="M272.1 227c-.5-14.8-1.8-32.4-10.6-44.9-4.2-6.1-12.1-9.5-19-5.5-6.5 3.8-8.2 12.3-8.9 19.2-1.5 15.8 2.3 31.4 2.7 47.1.4 14.7-.4 41.2-19 45.1-4 .8-7.6.3-9.7-1.2-3.2-2.2-5.1-5.5-6.7-9.2-4.6-11.1-5.2-23.9-5.6-35.7-.4-13.3.3-26.6 1.1-39.9.6-9.2 1.8-18.6 1.4-27.9-.1-2.3-2.1-4.7-4.4-5-8.2-.9-16.3.8-24.5.9-.8 0-1.5.2-2.1.4-2.9-.9-6.3.2-6.9 4-2.5 16.1-3 32.4-3.1 48.6-.1 14-.8 28-.6 42 .2 13.2 2 26.8 8 38.7 5.5 10.7 15.7 18.6 26.7 22.9 10.9 4.2 24.3 5.4 35.5 1.5 11.1-3.9 20.4-11.7 27.3-21C270.8 284.5 273.1 254.3 272.1 227zM255.3 281c-5.7 16-15.9 30.6-32.3 36.9-16 6.1-36.4-2.1-46.4-15-11.6-15.1-9.6-38.7-9-56.5.7-21.8-.2-43.6 2.6-65.3 5.6-.1 11.2-1.2 16.8-1.3-.1 9.5-1.3 18.9-1.8 28.6-.9 15.8-1.5 31.7 0 47.5 1.2 12.8 3.6 27.1 12.6 37 9.9 10.8 26.5 6.9 36.2-1.8 14.2-12.7 13.9-36.8 13.1-54.1-.7-15.1-5-30.4-1.7-45.6 1.1-5 3.6-7.5 7-3.1 4.6 6 6 14.7 7.2 21.9 1.4 8.4 1.6 16.9 1.7 25.3C261.5 250.6 260.3 266.7 255.3 281zM385.7 182.6c2.2-3.2.4-8.3-4.8-8.5-2.5-.1-4.9-.2-7.3-.6 1.6.3-2.7-.4-2.5-.4-1.6 0-3.2-.2-4.9-.3-3.2-.3-6.5-1-9.6-1.6-3.1-.6-5.7 1.5-6.4 4.3-5.8 21.7-16.9 41.3-24.8 62.2-1.1-5-2-10.1-2.9-15.2-1.9-11-4.8-21.5-8.1-32.1-1.6-5.1-3.5-10-5.7-14.9-1.1-2.5-2.2-5.2-5-6.2-7.7-2.6-16.3-1.4-23.2 2.8-.8.5-1.3 1-1.8 1.6-2.1.7-3.7 2.6-3.7 5.4.2 7.9 2.6 15.3 4.8 22.8 2.6 8.5 4 17.3 5.7 26 3.3 16.8 8.1 32.8 13.4 49 2.6 7.8 5.1 15.7 7.4 23.6 1.6 5.7 2.3 12 4.4 17.6 1.7 4.4 6.1 5.4 10.3 5.9 7.3.9 14.2 1.4 21.2-1.1 2.5-.9 3.6-3.1 3.7-5.6.3-9.8 4.8-19.3 7.3-28.7 2.9-11.2 6.2-22.4 10.1-33.3 8.1-22.2 20.6-43.3 25.5-66.5C389.4 186 387.9 183.6 385.7 182.6zM366.2 219.4c-5 11.3-9.9 22.6-14 34.3-4 11.1-7.2 22.6-10.2 34.1-2.2 8.6-5.6 16.7-6.7 25.5-4.4.8-8.8.2-13.3-.4-.5-.1-.9-.1-1.4-.2-.3-1.2-.4-2.5-.7-3.7-3.2-14.6-8.3-28.9-13-43.1-4.8-14.7-8.6-29.3-11.5-44.5-1.4-7.2-2.9-14.5-4.8-21.6-1.6-6.2-3.8-12.1-4.5-18.4.1-.1.2-.1.4-.2 2.7-1.6 5.8-2.2 8.9-2.3.9 0 1.9.2 2.8.4 3.6 8.4 6.2 16.9 8.9 25.6 5.2 16.9 5.7 35 12.2 51.6.9 2.4 3.1 3.7 5.6 3.7h1c2.5 0 4.4-2.2 5-4.4 6.7-25.3 20.8-47.8 28.5-72.8 1.6.3 3.1.5 4.7.7 1.6.2 3.1.3 4.7.4 1.5.2 1.9.2 1.3-.1.4.2.9.3 1.4.4 1.3.3 2.6.5 4 .6-.5 2-.1 4.4 1.6 5.9C374.5 200.6 370.4 210 366.2 219.4zM287.5 43.2c-6.5-12.5-11.8-25-22.4-34.8-2.7-2.5-6.9-1.4-8.6 1.7-5.4 10.2-9.1 21.1-12.9 32-3.8 10.8-9.3 21.3-9.7 32.9 0 1.5.4 2.6 1.1 3.4 0 2.3 1.4 4.3 4.3 4.6 5 .4 9.9.4 15-.2 4.9-.5 9.8-1.7 14.7-1.8 6.5 0 14.1.4 20.2-2.3 2.6-1.1 3.6-3.4 3.4-5.6.3-.3.6-.6.9-.9C300.1 64 291.4 50.7 287.5 43.2zM284.1 68.9c-4.9 1.6-10.8 1.1-15.9 1.1-7.8 0-15.3 2.2-23.1 2.2.9-9.7 6.3-19.4 9.5-28.5 2.6-7.3 5.1-14.6 8.3-21.7 5.7 7.2 9.4 15.5 13.7 23.8 1.8 3.5 3.7 7 5.3 10.6 1 2.1 1.8 4.2 2.5 6.4.3.8.4 1.5.5 2.3 0 .1 0 .2 0 .3C284.2 66.6 284 67.8 284.1 68.9zM394.4 37c-17.4 12.1-37.8 19.1-54 33-2.5 2.2-2.5 5.4-1.1 7.7-2.7 1.4-4.5 4.7-2.4 7.9 4.1 6.2 11.4 9.9 17.8 13.2 3.7 1.9 7.5 3.8 11.1 5.8 1.2.7 2.4 1.4 3.6 2.3.5.4 1.8 2 1.6 1 1.4 6.9 12.4 6.1 11-.8-.1-.4-.2-.7-.3-1 6.1-6.5 7.6-16.9 10-25.1 3.8-12.9 9.8-24.9 11.1-38.4C403.3 38 398.6 34 394.4 37zM382.1 75.2c-2.4 6.8-3.2 15.9-7.5 22-2.5-1.7-5.2-3.1-7.8-4.5-6.7-3.5-16.5-6.6-20.9-13.2.2-.1.3-.2.5-.4 12.9-11.1 28.5-17.8 43.2-26.2C387.7 60.4 384.8 67.8 382.1 75.2zM479.5 123.1c-10.4-.9-20.3 1.7-30.5 2.9-12.2 1.5-24.8 0-37 0-3.2 0-4.8 2.3-4.9 4.8-4.6.1-7.2 7.6-2.1 10.6 5.9 3.5 11.4 13.2 15.2 19.5 2.4 4 4.6 8.2 6.3 12.6.7 1.7 1.4 3.5 1.7 5.2.3 1.4-.1 3.2.3 2.3-1.2 2.9 0 5.4 2 6.8.7 2.1 2.5 3.7 5.4 3.1 12.7-2.4 19.2-17.3 26.3-26.6 8.5-11 21.1-21.4 21.7-36.3C484 125.9 481.7 123.3 479.5 123.1zM465.6 143.1c-3.7 4.8-7.9 9.3-11.7 14-3.1 3.8-5.7 8-8.5 12-1.4 2-3.6 5.7-6.1 8.2-1-7.3-5.7-15-8.8-20.5-3.7-6.5-8.1-14.1-13.8-19.8 9.8.1 19.5.6 29.3.2 8.6-.4 17.1-3 25.7-3.4C470.2 137.3 467.7 140.4 465.6 143.1zM506.9 295.1c-.1-.7-.3-1.3-.5-1.9-4.1-13.6-14.5-24.1-23.8-34.4-9.6-10.6-19.3-23.4-32.8-29.2-3.2-1.4-6 .3-7.3 2.8-2.4.5-4.6 2.4-4.6 5.6-.1 17.3-2.2 34.3-9.4 50.1-1.6 3.5.4 6.8 3.9 7.8 20.8 6.3 43.3 1.4 64 8 3.1 1 5.2-.7 5.9-3.1C504.9 300.4 507.3 298.3 506.9 295.1zM441 286.7c5.5-14.5 7.5-29.7 7.9-45.3 9.7 5.6 17.4 15.3 24.6 23.5 7.5 8.5 16.1 16.7 20.8 27.1C476.9 287.7 458.5 290.2 441 286.7zM194.6 82.7c-4.9-12.1-16.4-19.6-26.5-27-10.8-7.9-21.3-17.5-34.7-20.6-1.9-.4-3.9.4-5.2 1.8-7.3 8.2-4.1 21.3-1.6 30.8 1.4 5.3 3 10.6 5.2 15.6 2.8 6.1 7.6 13.2 7.1 20.2-.3 4.4 3.9 6.9 7.2 6.4 2 2.1 5.6 2.9 8.3.3 5.1-4.9 11.6-8.5 17.7-11.9 6-3.4 12.4-6.4 19-8.5C194 88.9 195.7 85.4 194.6 82.7zM149.6 99.9c-1.3-9.8-7.1-18.3-10.2-27.8-1.6-5.1-3.1-10.2-4-15.5-.4-2.7-1.1-6.5-.3-9.5 9.6 3.4 17.7 11 25.8 16.9 6.8 5 15.5 10.2 20.7 17.5C170.2 85.7 158.7 92.1 149.6 99.9zM83.5 176.8C83.5 177.1 83.6 177 83.5 176.8L83.5 176.8z"/><path d="M112.9 131.4c-.7-1.1-1.8-1.9-3.4-2.2-23.8-5.1-46.9-12.9-71.5-13.1-3.4 0-6.1 4.2-4.8 7.3 6.1 14.1 19.4 23.4 29.5 34.4 3.6 3.9 7.7 7.2 11.7 10.7 2.2 2 4.4 3.9 6.6 6 .7.7 1.4 1.4 2.1 2.1.1.1.2.3.3.4 0-.1-.1-.3-.2-.6 0-.3 0-.6.1-.9 1.1 4.4 7.2 6.8 9.6 2.7 7.5-.8 10.8-10.7 13.3-16.6 2.7-6.4 5.1-16.6 9.4-21.2C118.7 136.8 116.3 132.5 112.9 131.4zM98.4 151.4c-1.4 3.6-2.9 7.2-4.6 10.8-.7 1.6-1.6 3.1-2.5 4.5-.2.3-.3.4-.4.5-.4.1-.7.2-1.1.4-.7-.7-1.5-1.4-2.3-2.1-4.7-4.4-9.7-8.6-14.4-12.9-4.2-3.9-8-8-12.8-12.5-4-3.9-8.5-8-12.1-12.6 18.6 1.7 36.6 7.4 54.9 11.5C101.3 143 100 147.5 98.4 151.4zM77 216.3c-.9-1.6-2.6-2.6-5-2.2-23.3 3.5-46.3 14.2-64.7 28.9-3.5 2.8-2.9 7.1.6 9.5 11.9 7.8 24.9 13.4 38 19 3.7 1.6 7.8 2.3 11.8 3.1 2.1.5 4.3.9 6.4 1.5.7.2 1.4.4 2.1.6.4.2.7.3.9.4 1.9 3 5.4 2.5 7.5.5 2.3-.6 4.2-2.5 4.2-5.5.1-17 1.9-34 2-51C80.9 218.2 79.1 216.7 77 216.3zM68.1 265.7c-.6-.2-1.2-.3-1.8-.5-4.7-1.3-9.6-2-14.4-3.3-5.7-1.5-12.8-5.4-18.6-8.1-4.5-2.1-8.9-4.4-13.2-6.9 14.7-10.4 32-18.3 49.7-21.5C69.7 238.9 68.5 252.3 68.1 265.7zM448.6 420.7c-8.2-26.5-16.9-52.8-26-79-1.2-3.6-6.9-5.3-9.3-1.8-10.9 15.6-19 33-35.9 43.1-1.1.7-1.8 1.5-2.2 2.5-3 .6-5.5 3.3-3.9 6.9 11.1 25.7 46.1 33.1 71.1 35.6C446.6 428.3 449.9 425 448.6 420.7zM409.7 409.8c-9.6-3.4-20.6-8.7-26.2-17.7 0 0 0 0 .1 0 14.9-8.9 23.3-22.5 32.3-36.3 6.9 20 13.5 40.1 19.8 60.3C426.8 414.8 418.1 412.8 409.7 409.8zM340.4 407c-21.8 13.6-48.3 15-73.3 15.1-3.5 0-5.1 2.8-4.9 5.5-2 3-1.3 7.8 3.3 8.4 6.2.8 10.7 5.3 14.6 9.8 4.1 4.8 8.2 10.3 10.9 16 3.5 7.4 6.5 15.1 10.8 22.1 3.7 6.1 9.5 10.4 11.6 17.5 1.4 4.7 8 4.7 10.1.6 6.8-13.1 9.6-27.8 13.3-41.9 4-15.6 10.8-31.3 12.2-47.5C349.3 407.9 344.7 404.3 340.4 407zM326.6 454.9c-3 10.7-5 21.7-8.8 32.1-2.3-3.1-4.9-6-7.1-9.3-5.2-7.8-7.2-17.4-12.4-25.2-4.3-6.5-9.3-14.2-15.6-19.8 18.4-.8 36.8-3.5 53.5-11.1C333.9 432.9 329.7 444 326.6 454.9zM117.4 354.9c-3.9-4.1-6.7-9-10.2-13.5-5.5-7.1-13.9-13.6-14.3-23.3-.3-7.1-11.2-6.2-11 .8 0 .9.1 1.9.3 2.8-1.9-.7-4.1-.5-5.9 1.2-7.4 6.8-9.1 17.7-13.8 26.2-3.3 6.1-6 12.4-9.6 18.4-3.6 5.8-7.3 11.5-10.4 17.6-1.9 3.7 1.2 8.4 5.3 7.9 12.9-1.4 25.2-6.2 37.6-9.8 12.5-3.6 24.6-8 36.1-14.1 1.8-.9 2.4-3.1 2.4-5C123.9 359.9 120 357.7 117.4 354.9zM81.8 372.8C74 375.2 66 378.1 58 380c4.5-7.5 9.4-14.8 13-22.9 2.1-4.6 4.1-9.2 6-13.9 1.9-4.7 3.7-9.7 7.5-13.2.1-.1.2-.2.3-.3 2.4 4.9 6 9.2 9.7 13.5 5.4 6.2 9.8 13.2 15.3 19.3C100.8 366.9 91.4 370 81.8 372.8zM214.8 420.8c-2.4-3.5-6.7-5.2-10.4-6.8-4.8-2.1-9.8-3.7-14.7-5.5-5-1.8-9.5-4-13.9-7.1-6.4-4.6-12.5-9.3-20.3-11.2-3.4-.8-5.7 1.4-6.2 4.1-4.8.4-7.6 7.1-3.3 9.8.2.6.2.9.3 1.2.5 2.8.6 5.7.7 8.5.3 8.2 0 16.4-.4 24.6-.3 8-.8 16-1.3 23.9-.3 4.8-.9 9.9-.4 14.7.5 4.4 4.9 6.1 8.6 4.1 15.2-8.4 29.2-19.9 40.7-33 4.7-5.4 9.2-10 15.1-14.2C213.3 431.2 218.3 426 214.8 420.8zM197.9 428.5c-5.5 4.2-9.7 9.9-14.3 15-8 8.9-17.5 16.8-27.7 23.4.1-2.1.3-4.3.4-6.3.5-9.1 1-18.2 1.4-27.3.3-8.1.6-16.2 0-24.3-.1-1.9-.3-4.5-.8-6.9 8.9 3.6 15.9 11.7 24.9 15.2 6.9 2.7 14.1 4.7 20.8 8C201.1 426.3 199.4 427.3 197.9 428.5z"/></svg>