<svg xmlns="http://www.w3.org/2000/svg"  viewBox="0 0 100 100" width="100px" height="100px"><path d="M 36.5 16 C 33.584697 16 30.780585 17.240419 28.792969 19.400391 C 27.67938 20.610749 27.757969 22.524694 28.96875 23.638672 C 30.178392 24.752973 32.092256 24.67292 33.207031 23.462891 C 34.087382 22.506132 35.236816 22 36.5 22 C 38.990743 22 41 24.009257 41 26.5 C 41 28.990743 38.990743 31 36.5 31 L 14 31 C 12.354937 31 11 32.354937 11 34 C 11 35.645063 12.354937 37 14 37 L 36.5 37 C 42.280446 37 47 32.280446 47 26.5 C 47 20.719554 42.280446 16 36.5 16 z M 70.5 17 C 63.971089 17 57.867258 20.499541 54.552734 26.138672 C 53.438874 28.032235 54.078263 30.500079 55.972656 31.613281 C 57.866654 32.727397 60.336382 32.086809 61.449219 30.191406 L 61.447266 30.191406 C 63.327975 26.991269 66.804165 25 70.5 25 C 76.298604 25 81 29.701396 81 35.5 C 81 41.298604 76.298604 46 70.5 46 L 15 46 C 12.802666 46 11 47.802666 11 50 C 11 52.197334 12.802666 54 15 54 L 70.5 54 C 80.69144 54 89 45.69144 89 35.5 C 89 25.30856 80.69144 17 70.5 17 z M 36.5 18 C 41.195554 18 45 21.804446 45 26.5 C 45 31.195554 41.195554 35 36.5 35 L 14 35 C 13.437063 35 13 34.562937 13 34 C 13 33.437063 13.437063 33 14 33 L 36.5 33 C 40.075257 33 43 30.075257 43 26.5 C 43 22.924743 40.075257 20 36.5 20 C 34.687184 20 32.975977 20.762134 31.736328 22.109375 C 31.353103 22.525345 30.738577 22.549672 30.324219 22.167969 L 30.322266 22.167969 C 29.907094 21.785951 29.883214 21.169548 30.265625 20.753906 C 31.876009 19.003878 34.153303 18 36.5 18 z M 70.5 19 C 79.60656 19 87 26.39344 87 35.5 C 87 44.60656 79.60656 52 70.5 52 L 15 52 C 13.883334 52 13 51.116666 13 50 C 13 48.883334 13.883334 48 15 48 L 70.5 48 C 77.383396 48 83 42.383396 83 35.5 C 83 28.616604 77.383396 23 70.5 23 C 66.087835 23 61.965947 25.363872 59.724609 29.177734 C 59.159446 30.140331 57.948331 30.454556 56.986328 29.888672 C 56.023731 29.323508 55.709507 28.114346 56.275391 27.152344 C 59.228867 22.127475 64.686911 19 70.5 19 z M 12.5 42 A 0.50005 0.50005 0 1 0 12.5 43 L 57.5 43 A 0.50005 0.50005 0 1 0 57.5 42 L 12.5 42 z M 60.5 42 A 0.50005 0.50005 0 1 0 60.5 43 L 66.5 43 A 0.50005 0.50005 0 1 0 66.5 42 L 60.5 42 z M 12.5 57 A 0.50005 0.50005 0 1 0 12.5 58 L 39.5 58 A 0.50005 0.50005 0 1 0 39.5 57 L 12.5 57 z M 42.5 57 A 0.50005 0.50005 0 1 0 42.5 58 L 45.5 58 A 0.50005 0.50005 0 1 0 45.5 57 L 42.5 57 z M 48.5 57 A 0.50005 0.50005 0 1 0 48.5 58 L 49.5 58 A 0.50005 0.50005 0 1 0 49.5 57 L 48.5 57 z M 14 63 C 12.354937 63 11 64.354937 11 66 C 11 67.645063 12.354937 69 14 69 L 52.5 69 C 54.990743 69 57 71.009257 57 73.5 C 57 75.990743 54.990743 78 52.5 78 C 51.236816 78 50.088562 77.494248 49.207031 76.537109 C 48.092256 75.32708 46.176439 75.247027 44.966797 76.361328 C 43.75752 77.475293 43.679079 79.388925 44.792969 80.599609 C 46.781474 82.759347 49.584697 84 52.5 84 C 58.280446 84 63 79.280446 63 73.5 C 63 67.719554 58.280446 63 52.5 63 L 14 63 z M 14 65 L 52.5 65 C 57.195554 65 61 68.804446 61 73.5 C 61 78.195554 57.195554 82 52.5 82 C 50.153303 82 47.875167 80.996356 46.263672 79.246094 C 45.881561 78.830779 45.907547 78.214067 46.322266 77.832031 C 46.736623 77.450332 47.353103 77.474659 47.736328 77.890625 C 48.976801 79.237491 50.687184 80 52.5 80 C 56.075257 80 59 77.075257 59 73.5 C 59 69.924743 56.075257 67 52.5 67 L 14 67 C 13.437063 67 13 66.562937 13 66 C 13 65.437063 13.437063 65 14 65 z"/></svg>